<?xml version="1.0" encoding="utf-8"?>
<!-- Generator: Adobe Illustrator 26.0.0, SVG Export Plug-In . SVG Version: 6.00 Build 0)  -->
<svg version="1.1" id="Livello_1" xmlns="http://www.w3.org/2000/svg" xmlns:xlink="http://www.w3.org/1999/xlink" x="0px" y="0px"
	 viewBox="0 0 1097 545" style="enable-background:new 0 0 1097 545;" xml:space="preserve">
<style type="text/css">
	.st0{clip-path:url(#SVGID_00000174598218593665853710000015104929491125105581_);}
	.st1{fill:url(#SVGID_00000127725288393206451760000001042883551008338084_);}
	.st2{fill:url(#SVGID_00000012435819751922866710000001798491299321291178_);}
	.st3{fill:#350100;}
	.st4{fill:none;stroke:#B68337;stroke-width:2;}
	.st5{opacity:0.5;fill:url(#SVGID_00000035508339741460548370000016935683544945347231_);}
	.st6{opacity:0.5;fill:url(#SVGID_00000150083778014014799540000017195582328610050710_);}
	.st7{opacity:0.5;fill:url(#SVGID_00000148660292512755674440000013843824197582526105_);}
	.st8{opacity:0.5;fill:url(#SVGID_00000110470088286044174100000010384650797229617808_);}
	.st9{opacity:0.5;fill:url(#SVGID_00000135692472122357441050000014673691743314866079_);}
	.st10{opacity:0.5;fill:url(#SVGID_00000018232563836648287480000000056000390403190457_);}
	.st11{opacity:0.5;fill:url(#SVGID_00000106844384084554477960000011848043135646038417_);}
	.st12{opacity:0.5;fill:url(#SVGID_00000172421567972023917350000016803769920018304671_);}
	.st13{opacity:0.5;fill:url(#SVGID_00000085972628468743518750000008502353347946432654_);}
	.st14{opacity:0.5;fill:url(#SVGID_00000051354151722970292980000008825903978102242966_);}
	.st15{opacity:0.5;fill:url(#SVGID_00000109732076227612916870000015728515760435244162_);}
	.st16{opacity:0.5;fill:url(#SVGID_00000090264525152656660430000011530679563544843673_);}
	.st17{opacity:0.5;fill:url(#SVGID_00000168806189575732783790000011462640375209148800_);}
</style>
<g>
	<defs>
		<rect id="SVGID_1_" width="1097" height="545"/>
	</defs>
	<clipPath id="SVGID_00000134226184182789021630000005785130930140304814_">
		<use xlink:href="#SVGID_1_"  style="overflow:visible;"/>
	</clipPath>
	<g style="clip-path:url(#SVGID_00000134226184182789021630000005785130930140304814_);">
		<g>
			
				<radialGradient id="SVGID_00000057857358209046995270000015877503733070718081_" cx="548.5" cy="273.5" r="433.0753" gradientTransform="matrix(1 0 0 -1 0 546)" gradientUnits="userSpaceOnUse">
				<stop  offset="0" style="stop-color:#B68337"/>
				<stop  offset="1" style="stop-color:#935D23"/>
			</radialGradient>
			<path style="fill:url(#SVGID_00000057857358209046995270000015877503733070718081_);" d="M840.5,0H256.5C114.9,0,0,122,0,272.5
				S114.9,545,256.5,545h583.9c141.7,0,256.5-122,256.5-272.5S982.1,0,840.5,0z"/>
		</g>
		
			<linearGradient id="SVGID_00000098183522326985267910000003035228812895501188_" gradientUnits="userSpaceOnUse" x1="-66.4508" y1="21.8353" x2="1204.255" y2="541.8635" gradientTransform="matrix(1 0 0 -1 0 546)">
			<stop  offset="0" style="stop-color:#B59162"/>
			<stop  offset="1" style="stop-color:#5B2D1D"/>
		</linearGradient>
		<path style="fill:url(#SVGID_00000098183522326985267910000003035228812895501188_);" d="M810.3,24H286.7
			C159.3,24,56,134.2,56,270.2v4.5C56,410.8,159.3,521,286.7,521h523.6c127.4,0,230.7-110.2,230.7-246.2v-4.5
			C1041,134.2,937.7,24,810.3,24z"/>
		<g>
			<path class="st3" d="M810.3,38.2H285.6c-121.5,0-220,104.6-220,233.7c0,129.1,98.5,233.7,220,233.7h524.7
				c121.5,0,220-104.6,220-233.7C1030.3,142.9,931.8,38.2,810.3,38.2z"/>
		</g>
		<path class="st4" d="M795.9,79H301.1C201.1,79,120,165.4,120,272s81.1,193,181.1,193h494.7c100,0,181.1-86.4,181.1-193
			S895.9,79,795.9,79z"/>
	</g>
</g>
<g>
	
		<linearGradient id="SVGID_00000145045795905634780870000015490998984548678822_" gradientUnits="userSpaceOnUse" x1="314.9272" y1="306.69" x2="447.8392" y2="236.0481" gradientTransform="matrix(1 0 0 -1 -3 546)">
		<stop  offset="0" style="stop-color:#281A0F"/>
		<stop  offset="0" style="stop-color:#2D1D10"/>
		<stop  offset="0" style="stop-color:#482C16"/>
		<stop  offset="0" style="stop-color:#5E391B"/>
		<stop  offset="0" style="stop-color:#6F421F"/>
		<stop  offset="1.000000e-02" style="stop-color:#7A4922"/>
		<stop  offset="1.000000e-02" style="stop-color:#814D24"/>
		<stop  offset="2.000000e-02" style="stop-color:#834E24"/>
		<stop  offset="4.000000e-02" style="stop-color:#F6E589"/>
		<stop  offset="7.000000e-02" style="stop-color:#8E5C22"/>
		<stop  offset="9.000000e-02" style="stop-color:#9A692B"/>
		<stop  offset="0.13" style="stop-color:#BB8B44"/>
		<stop  offset="0.16" style="stop-color:#E7B965"/>
		<stop  offset="0.32" style="stop-color:#F7E787"/>
		<stop  offset="0.72" style="stop-color:#E5B863"/>
		<stop  offset="1" style="stop-color:#603914"/>
	</linearGradient>
	<path style="opacity:0.5;fill:url(#SVGID_00000145045795905634780870000015490998984548678822_);" d="M391.6,258.3l-7,12.6l3.6,6.5
		l10.8-19.1l3.6-6.3h-50.2c-2.3,0-4.2,1.9-4.2,4.2c0,0.7,0.2,1.5,0.6,2.1l28.6,50.5c1.1,2,3.7,2.8,5.8,1.6c0.7-0.4,1.2-0.9,1.6-1.6
		l0,0l-28.6-50.5L391.6,258.3z"/>
	
		<linearGradient id="SVGID_00000056397445058374973700000012861141045321747097_" gradientUnits="userSpaceOnUse" x1="318.4797" y1="313.3801" x2="451.3917" y2="242.7381" gradientTransform="matrix(1 0 0 -1 -3 546)">
		<stop  offset="0" style="stop-color:#281A0F"/>
		<stop  offset="0" style="stop-color:#2D1D10"/>
		<stop  offset="0" style="stop-color:#482C16"/>
		<stop  offset="0" style="stop-color:#5E391B"/>
		<stop  offset="0" style="stop-color:#6F421F"/>
		<stop  offset="1.000000e-02" style="stop-color:#7A4922"/>
		<stop  offset="1.000000e-02" style="stop-color:#814D24"/>
		<stop  offset="2.000000e-02" style="stop-color:#834E24"/>
		<stop  offset="4.000000e-02" style="stop-color:#F6E589"/>
		<stop  offset="7.000000e-02" style="stop-color:#8E5C22"/>
		<stop  offset="9.000000e-02" style="stop-color:#9A692B"/>
		<stop  offset="0.13" style="stop-color:#BB8B44"/>
		<stop  offset="0.16" style="stop-color:#E7B965"/>
		<stop  offset="0.32" style="stop-color:#F7E787"/>
		<stop  offset="0.72" style="stop-color:#E5B863"/>
		<stop  offset="1" style="stop-color:#603914"/>
	</linearGradient>
	<path style="opacity:0.5;fill:url(#SVGID_00000056397445058374973700000012861141045321747097_);" d="M410.2,252L410.2,252
		c-0.4,0-0.8,0.2-1,0.6l-20.8,36.9l-14.4-24.9h-7.4l18.1,31.4l3.7,6.5l3.7-6.5l21.2-37.7c1.2-2.1,0.4-4.7-1.6-5.9
		C411.1,252.2,410.7,252.1,410.2,252z"/>
	
		<linearGradient id="SVGID_00000068667045440059249310000012999203774478378640_" gradientUnits="userSpaceOnUse" x1="409.9777" y1="268.1191" x2="764.5135" y2="216.8471" gradientTransform="matrix(1 0 0 -1 -3 546)">
		<stop  offset="0" style="stop-color:#281A0F"/>
		<stop  offset="0" style="stop-color:#2D1D10"/>
		<stop  offset="0" style="stop-color:#482C16"/>
		<stop  offset="0" style="stop-color:#5E391B"/>
		<stop  offset="0" style="stop-color:#6F421F"/>
		<stop  offset="1.000000e-02" style="stop-color:#7A4922"/>
		<stop  offset="1.000000e-02" style="stop-color:#814D24"/>
		<stop  offset="2.000000e-02" style="stop-color:#834E24"/>
		<stop  offset="4.000000e-02" style="stop-color:#F6E589"/>
		<stop  offset="7.000000e-02" style="stop-color:#8E5C22"/>
		<stop  offset="9.000000e-02" style="stop-color:#9A692B"/>
		<stop  offset="0.13" style="stop-color:#BB8B44"/>
		<stop  offset="0.16" style="stop-color:#E7B965"/>
		<stop  offset="0.32" style="stop-color:#F7E787"/>
		<stop  offset="0.72" style="stop-color:#E5B863"/>
		<stop  offset="1" style="stop-color:#603914"/>
	</linearGradient>
	<path style="opacity:0.5;fill:url(#SVGID_00000068667045440059249310000012999203774478378640_);" d="M464.6,274
		c0,12.2-13.4,11.4-20,11.4v19h-6.3v-36.3c0-2.9-2.3-5.4-5.2-5.6v-0.3h11.5C451.2,262.1,464.6,262,464.6,274z M457.8,274
		c-0.4-9.3-7.5-9.9-8.7-9.9h-4.5v19h4.5C451.4,283.2,458.1,283,457.8,274z"/>
	
		<linearGradient id="SVGID_00000007388270945621806900000003501993186748500412_" gradientUnits="userSpaceOnUse" x1="409.9842" y1="268.138" x2="764.52" y2="216.892" gradientTransform="matrix(1 0 0 -1 -3 546)">
		<stop  offset="0" style="stop-color:#281A0F"/>
		<stop  offset="0" style="stop-color:#2D1D10"/>
		<stop  offset="0" style="stop-color:#482C16"/>
		<stop  offset="0" style="stop-color:#5E391B"/>
		<stop  offset="0" style="stop-color:#6F421F"/>
		<stop  offset="1.000000e-02" style="stop-color:#7A4922"/>
		<stop  offset="1.000000e-02" style="stop-color:#814D24"/>
		<stop  offset="2.000000e-02" style="stop-color:#834E24"/>
		<stop  offset="4.000000e-02" style="stop-color:#F6E589"/>
		<stop  offset="7.000000e-02" style="stop-color:#8E5C22"/>
		<stop  offset="9.000000e-02" style="stop-color:#9A692B"/>
		<stop  offset="0.13" style="stop-color:#BB8B44"/>
		<stop  offset="0.16" style="stop-color:#E7B965"/>
		<stop  offset="0.32" style="stop-color:#F7E787"/>
		<stop  offset="0.72" style="stop-color:#E5B863"/>
		<stop  offset="1" style="stop-color:#603914"/>
	</linearGradient>
	<path style="opacity:0.5;fill:url(#SVGID_00000007388270945621806900000003501993186748500412_);" d="M500.1,275.4v29h-5.8v-2.2
		c-2,1.9-4.6,3-7.4,3c-8.2,0-11.5-4.8-11.5-9.4v-14.4c0-2.9-2.3-5.4-5.2-5.6v-0.4h10.9v19.9c0,5.5,3.2,7.1,5.7,7.1
		c2.8,0.2,5.5-0.8,7.3-2.9v-24.1H500.1z"/>
	
		<linearGradient id="SVGID_00000037693733655524547490000014274090925041616057_" gradientUnits="userSpaceOnUse" x1="411.3297" y1="277.5045" x2="765.8654" y2="226.2325" gradientTransform="matrix(1 0 0 -1 -3 546)">
		<stop  offset="0" style="stop-color:#281A0F"/>
		<stop  offset="0" style="stop-color:#2D1D10"/>
		<stop  offset="0" style="stop-color:#482C16"/>
		<stop  offset="0" style="stop-color:#5E391B"/>
		<stop  offset="0" style="stop-color:#6F421F"/>
		<stop  offset="1.000000e-02" style="stop-color:#7A4922"/>
		<stop  offset="1.000000e-02" style="stop-color:#814D24"/>
		<stop  offset="2.000000e-02" style="stop-color:#834E24"/>
		<stop  offset="4.000000e-02" style="stop-color:#F6E589"/>
		<stop  offset="7.000000e-02" style="stop-color:#8E5C22"/>
		<stop  offset="9.000000e-02" style="stop-color:#9A692B"/>
		<stop  offset="0.13" style="stop-color:#BB8B44"/>
		<stop  offset="0.16" style="stop-color:#E7B965"/>
		<stop  offset="0.32" style="stop-color:#F7E787"/>
		<stop  offset="0.72" style="stop-color:#E5B863"/>
		<stop  offset="1" style="stop-color:#603914"/>
	</linearGradient>
	<path style="opacity:0.5;fill:url(#SVGID_00000037693733655524547490000014274090925041616057_);" d="M513.2,262.1v42.2h-5.8v-36.8
		c-0.1-2.8-2.3-5-5.1-5.2v-0.2H513.2z"/>
	
		<linearGradient id="SVGID_00000082336343681630536990000012669575941963429528_" gradientUnits="userSpaceOnUse" x1="410.7335" y1="273.4615" x2="765.2953" y2="222.1895" gradientTransform="matrix(1 0 0 -1 -3 546)">
		<stop  offset="0" style="stop-color:#281A0F"/>
		<stop  offset="0" style="stop-color:#2D1D10"/>
		<stop  offset="0" style="stop-color:#482C16"/>
		<stop  offset="0" style="stop-color:#5E391B"/>
		<stop  offset="0" style="stop-color:#6F421F"/>
		<stop  offset="1.000000e-02" style="stop-color:#7A4922"/>
		<stop  offset="1.000000e-02" style="stop-color:#814D24"/>
		<stop  offset="2.000000e-02" style="stop-color:#834E24"/>
		<stop  offset="4.000000e-02" style="stop-color:#F6E589"/>
		<stop  offset="7.000000e-02" style="stop-color:#8E5C22"/>
		<stop  offset="9.000000e-02" style="stop-color:#9A692B"/>
		<stop  offset="0.13" style="stop-color:#BB8B44"/>
		<stop  offset="0.16" style="stop-color:#E7B965"/>
		<stop  offset="0.32" style="stop-color:#F7E787"/>
		<stop  offset="0.72" style="stop-color:#E5B863"/>
		<stop  offset="1" style="stop-color:#603914"/>
	</linearGradient>
	<path style="opacity:0.5;fill:url(#SVGID_00000082336343681630536990000012669575941963429528_);" d="M541.6,297.6
		c0,4.7-5.4,7.6-12.4,7.6c-4.2,0-10.3-2-10.3-8.2h2.3c0,4.9,4.7,6.2,8.1,6.3c4,0,7-1.6,7-4.3c0-3.7-3.1-4.4-8.3-6.7
		c-3.3-1.4-9.1-4-9.1-9.3c0-4.2,3.9-7.8,11.4-7.8c2.1,0,9.3,0.6,9.3,7h-2c0-4.4-5.2-5.4-7.2-5.4c-3.5,0-6.2,1.4-6.2,4.4
		s3.6,4.2,7.8,6.2C538,290.3,541.6,292.2,541.6,297.6z"/>
	
		<linearGradient id="SVGID_00000006678162050327040320000010443735695014878365_" gradientUnits="userSpaceOnUse" x1="411.3567" y1="277.6678" x2="765.8925" y2="226.4218" gradientTransform="matrix(1 0 0 -1 -3 546)">
		<stop  offset="0" style="stop-color:#281A0F"/>
		<stop  offset="0" style="stop-color:#2D1D10"/>
		<stop  offset="0" style="stop-color:#482C16"/>
		<stop  offset="0" style="stop-color:#5E391B"/>
		<stop  offset="0" style="stop-color:#6F421F"/>
		<stop  offset="1.000000e-02" style="stop-color:#7A4922"/>
		<stop  offset="1.000000e-02" style="stop-color:#814D24"/>
		<stop  offset="2.000000e-02" style="stop-color:#834E24"/>
		<stop  offset="4.000000e-02" style="stop-color:#F6E589"/>
		<stop  offset="7.000000e-02" style="stop-color:#8E5C22"/>
		<stop  offset="9.000000e-02" style="stop-color:#9A692B"/>
		<stop  offset="0.13" style="stop-color:#BB8B44"/>
		<stop  offset="0.16" style="stop-color:#E7B965"/>
		<stop  offset="0.32" style="stop-color:#F7E787"/>
		<stop  offset="0.72" style="stop-color:#E5B863"/>
		<stop  offset="1" style="stop-color:#603914"/>
	</linearGradient>
	<path style="opacity:0.5;fill:url(#SVGID_00000006678162050327040320000010443735695014878365_);" d="M552.6,289v1.3
		c0,10.6,9.6,18.7,18.6,8.2l1,0.9c-0.4,0.7-3.6,5.7-11.9,5.7c-8.9,0-14.1-6.4-14.1-14.9c0-8.4,5.2-14.8,14.1-14.8
		c10.6,0,11.9,8.1,11.9,11.3v2.2H552.6z M552.8,286.8h12.6c0-6.3-1.2-9.3-5-9.3S553.6,279.5,552.8,286.8z"/>
	
		<linearGradient id="SVGID_00000178898115444583064170000014545214140088301452_" gradientUnits="userSpaceOnUse" x1="413.6147" y1="293.2661" x2="768.1505" y2="242.0202" gradientTransform="matrix(1 0 0 -1 -3 546)">
		<stop  offset="0" style="stop-color:#281A0F"/>
		<stop  offset="0" style="stop-color:#2D1D10"/>
		<stop  offset="0" style="stop-color:#482C16"/>
		<stop  offset="0" style="stop-color:#5E391B"/>
		<stop  offset="0" style="stop-color:#6F421F"/>
		<stop  offset="1.000000e-02" style="stop-color:#7A4922"/>
		<stop  offset="1.000000e-02" style="stop-color:#814D24"/>
		<stop  offset="2.000000e-02" style="stop-color:#834E24"/>
		<stop  offset="4.000000e-02" style="stop-color:#F6E589"/>
		<stop  offset="7.000000e-02" style="stop-color:#8E5C22"/>
		<stop  offset="9.000000e-02" style="stop-color:#9A692B"/>
		<stop  offset="0.13" style="stop-color:#BB8B44"/>
		<stop  offset="0.16" style="stop-color:#E7B965"/>
		<stop  offset="0.32" style="stop-color:#F7E787"/>
		<stop  offset="0.72" style="stop-color:#E5B863"/>
		<stop  offset="1" style="stop-color:#603914"/>
	</linearGradient>
	<path style="opacity:0.5;fill:url(#SVGID_00000178898115444583064170000014545214140088301452_);" d="M634.2,262.1l-18.9,43.1
		l-17.1-39.6c-0.6-1.4-1.9-2.5-3.4-2.9l-1.2-0.4v-0.2h5.6c2.3,0,4.3,1.4,5.2,3.5l12.6,29.2l14.3-32.6H634.2z"/>
	
		<linearGradient id="SVGID_00000008831127850646858100000017884060707243745179_" gradientUnits="userSpaceOnUse" x1="413.0416" y1="289.2804" x2="767.5773" y2="238.0345" gradientTransform="matrix(1 0 0 -1 -3 546)">
		<stop  offset="0" style="stop-color:#281A0F"/>
		<stop  offset="0" style="stop-color:#2D1D10"/>
		<stop  offset="0" style="stop-color:#482C16"/>
		<stop  offset="0" style="stop-color:#5E391B"/>
		<stop  offset="0" style="stop-color:#6F421F"/>
		<stop  offset="1.000000e-02" style="stop-color:#7A4922"/>
		<stop  offset="1.000000e-02" style="stop-color:#814D24"/>
		<stop  offset="2.000000e-02" style="stop-color:#834E24"/>
		<stop  offset="4.000000e-02" style="stop-color:#F6E589"/>
		<stop  offset="7.000000e-02" style="stop-color:#8E5C22"/>
		<stop  offset="9.000000e-02" style="stop-color:#9A692B"/>
		<stop  offset="0.13" style="stop-color:#BB8B44"/>
		<stop  offset="0.16" style="stop-color:#E7B965"/>
		<stop  offset="0.32" style="stop-color:#F7E787"/>
		<stop  offset="0.72" style="stop-color:#E5B863"/>
		<stop  offset="1" style="stop-color:#603914"/>
	</linearGradient>
	<path style="opacity:0.5;fill:url(#SVGID_00000008831127850646858100000017884060707243745179_);" d="M655.4,284v20.4h-5.8v-4.3
		c-3.1,4.7-18.2,9.8-18.2-3c0-10,10.4-9,18.2-11.9v-2.8c0-3.6-1.5-5.2-5.2-5.2c-3.5-0.4-7,1.1-9,4l-1.6-0.5
		c2.2-3.6,6.2-5.7,10.4-5.4C652.4,275.2,655.4,278.6,655.4,284z M649.5,298.5v-11.7c-5.8,1.8-11.9,1.8-11.9,9.7
		S644.3,304.6,649.5,298.5z"/>
	
		<linearGradient id="SVGID_00000152255611633713278440000006173242822120514189_" gradientUnits="userSpaceOnUse" x1="414.5284" y1="299.5834" x2="769.0641" y2="248.3114" gradientTransform="matrix(1 0 0 -1 -3 546)">
		<stop  offset="0" style="stop-color:#281A0F"/>
		<stop  offset="0" style="stop-color:#2D1D10"/>
		<stop  offset="0" style="stop-color:#482C16"/>
		<stop  offset="0" style="stop-color:#5E391B"/>
		<stop  offset="0" style="stop-color:#6F421F"/>
		<stop  offset="1.000000e-02" style="stop-color:#7A4922"/>
		<stop  offset="1.000000e-02" style="stop-color:#814D24"/>
		<stop  offset="2.000000e-02" style="stop-color:#834E24"/>
		<stop  offset="4.000000e-02" style="stop-color:#F6E589"/>
		<stop  offset="7.000000e-02" style="stop-color:#8E5C22"/>
		<stop  offset="9.000000e-02" style="stop-color:#9A692B"/>
		<stop  offset="0.13" style="stop-color:#BB8B44"/>
		<stop  offset="0.16" style="stop-color:#E7B965"/>
		<stop  offset="0.32" style="stop-color:#F7E787"/>
		<stop  offset="0.72" style="stop-color:#E5B863"/>
		<stop  offset="1" style="stop-color:#603914"/>
	</linearGradient>
	<path style="opacity:0.5;fill:url(#SVGID_00000152255611633713278440000006173242822120514189_);" d="M669.1,262.1v42.2h-5.8v-36.8
		c-0.2-2.8-2.4-5-5.2-5.1v-0.4H669.1z"/>
	
		<linearGradient id="SVGID_00000007395963976202195030000015339892247655387324_" gradientUnits="userSpaceOnUse" x1="414.8655" y1="301.9174" x2="769.4012" y2="250.6714" gradientTransform="matrix(1 0 0 -1 -3 546)">
		<stop  offset="0" style="stop-color:#281A0F"/>
		<stop  offset="0" style="stop-color:#2D1D10"/>
		<stop  offset="0" style="stop-color:#482C16"/>
		<stop  offset="0" style="stop-color:#5E391B"/>
		<stop  offset="0" style="stop-color:#6F421F"/>
		<stop  offset="1.000000e-02" style="stop-color:#7A4922"/>
		<stop  offset="1.000000e-02" style="stop-color:#814D24"/>
		<stop  offset="2.000000e-02" style="stop-color:#834E24"/>
		<stop  offset="4.000000e-02" style="stop-color:#F6E589"/>
		<stop  offset="7.000000e-02" style="stop-color:#8E5C22"/>
		<stop  offset="9.000000e-02" style="stop-color:#9A692B"/>
		<stop  offset="0.13" style="stop-color:#BB8B44"/>
		<stop  offset="0.16" style="stop-color:#E7B965"/>
		<stop  offset="0.32" style="stop-color:#F7E787"/>
		<stop  offset="0.72" style="stop-color:#E5B863"/>
		<stop  offset="1" style="stop-color:#603914"/>
	</linearGradient>
	<path style="opacity:0.5;fill:url(#SVGID_00000007395963976202195030000015339892247655387324_);" d="M685.7,262.1v42.2h-5.8v-36.8
		c-0.2-2.8-2.4-5-5.2-5.1v-0.4H685.7z"/>
	
		<linearGradient id="SVGID_00000009564947452658793790000012526602067016960659_" gradientUnits="userSpaceOnUse" x1="414.3247" y1="298.2618" x2="768.8865" y2="247.0159" gradientTransform="matrix(1 0 0 -1 -3 546)">
		<stop  offset="0" style="stop-color:#281A0F"/>
		<stop  offset="0" style="stop-color:#2D1D10"/>
		<stop  offset="0" style="stop-color:#482C16"/>
		<stop  offset="0" style="stop-color:#5E391B"/>
		<stop  offset="0" style="stop-color:#6F421F"/>
		<stop  offset="1.000000e-02" style="stop-color:#7A4922"/>
		<stop  offset="1.000000e-02" style="stop-color:#814D24"/>
		<stop  offset="2.000000e-02" style="stop-color:#834E24"/>
		<stop  offset="4.000000e-02" style="stop-color:#F6E589"/>
		<stop  offset="7.000000e-02" style="stop-color:#8E5C22"/>
		<stop  offset="9.000000e-02" style="stop-color:#9A692B"/>
		<stop  offset="0.13" style="stop-color:#BB8B44"/>
		<stop  offset="0.16" style="stop-color:#E7B965"/>
		<stop  offset="0.32" style="stop-color:#F7E787"/>
		<stop  offset="0.72" style="stop-color:#E5B863"/>
		<stop  offset="1" style="stop-color:#603914"/>
	</linearGradient>
	<path style="opacity:0.5;fill:url(#SVGID_00000009564947452658793790000012526602067016960659_);" d="M697.8,289v1.3
		c0,10.6,9.6,18.7,18.6,8.2l1,0.9c-0.3,0.7-3.6,5.7-11.9,5.7c-8.9,0-14.1-6.4-14.1-14.9c0-8.5,5.2-14.9,14.1-14.9
		c10.6,0,11.9,8.1,11.9,11.3v2.2L697.8,289z M698,286.8h12.6c-0.1-6.3-1.2-9.3-5-9.3S698.7,279.5,698,286.8L698,286.8z"/>
	
		<linearGradient id="SVGID_00000077302996359108202610000012758692218456843441_" gradientUnits="userSpaceOnUse" x1="414.1903" y1="297.2694" x2="768.7261" y2="245.9975" gradientTransform="matrix(1 0 0 -1 -3 546)">
		<stop  offset="0" style="stop-color:#281A0F"/>
		<stop  offset="0" style="stop-color:#2D1D10"/>
		<stop  offset="0" style="stop-color:#482C16"/>
		<stop  offset="0" style="stop-color:#5E391B"/>
		<stop  offset="0" style="stop-color:#6F421F"/>
		<stop  offset="1.000000e-02" style="stop-color:#7A4922"/>
		<stop  offset="1.000000e-02" style="stop-color:#814D24"/>
		<stop  offset="2.000000e-02" style="stop-color:#834E24"/>
		<stop  offset="4.000000e-02" style="stop-color:#F6E589"/>
		<stop  offset="7.000000e-02" style="stop-color:#8E5C22"/>
		<stop  offset="9.000000e-02" style="stop-color:#9A692B"/>
		<stop  offset="0.13" style="stop-color:#BB8B44"/>
		<stop  offset="0.16" style="stop-color:#E7B965"/>
		<stop  offset="0.32" style="stop-color:#F7E787"/>
		<stop  offset="0.72" style="stop-color:#E5B863"/>
		<stop  offset="1" style="stop-color:#603914"/>
	</linearGradient>
	<path style="opacity:0.5;fill:url(#SVGID_00000077302996359108202610000012758692218456843441_);" d="M748.8,275.5L733,317h-2.3
		l4.9-12.6l-12.2-24.9c-0.8-2-2.6-3.4-4.7-3.6v-0.3h5c2.6,0,5,1.5,6.1,3.8l8.6,17.6l8.2-21.4H748.8z"/>
</g>
</svg>
